<svg xmlns="http://www.w3.org/2000/svg" width="805" height="600"><rect width="805" height="600" x="0" y="0" fill="#FFFFFF" id="background"/><g transform="translate(50,10)" id="viz"><g id="axis"><g transform="translate(0,540)" fill="none" font-size="10" font-family="sans-serif" text-anchor="middle"><path class="domain" stroke="currentColor" d="M0,6V0H705V6"/><g class="tick" opacity="1" transform="translate(0,0)"><line stroke="currentColor" y2="6"/><text fill="currentColor" y="9" dy="0.71em">0</text></g><g class="tick" opacity="1" transform="translate(54.23076923076923,0)"><line stroke="currentColor" y2="6"/><text fill="currentColor" y="9" dy="0.71em">5</text></g><g class="tick" opacity="1" transform="translate(108.46153846153847,0)"><line stroke="currentColor" y2="6"/><text fill="currentColor" y="9" dy="0.71em">10</text></g><g class="tick" opacity="1" transform="translate(162.6923076923077,0)"><line stroke="currentColor" y2="6"/><text fill="currentColor" y="9" dy="0.71em">15</text></g><g class="tick" opacity="1" transform="translate(216.92307692307693,0)"><line stroke="currentColor" y2="6"/><text fill="currentColor" y="9" dy="0.71em">20</text></g><g class="tick" opacity="1" transform="translate(271.1538461538462,0)"><line stroke="currentColor" y2="6"/><text fill="currentColor" y="9" dy="0.71em">25</text></g><g class="tick" opacity="1" transform="translate(325.3846153846154,0)"><line stroke="currentColor" y2="6"/><text fill="currentColor" y="9" dy="0.71em">30</text></g><g class="tick" opacity="1" transform="translate(379.6153846153846,0)"><line stroke="currentColor" y2="6"/><text fill="currentColor" y="9" dy="0.71em">35</text></g><g class="tick" opacity="1" transform="translate(433.84615384615387,0)"><line stroke="currentColor" y2="6"/><text fill="currentColor" y="9" dy="0.71em">40</text></g><g class="tick" opacity="1" transform="translate(488.07692307692304,0)"><line stroke="currentColor" y2="6"/><text fill="currentColor" y="9" dy="0.71em">45</text></g><g class="tick" opacity="1" transform="translate(542.3076923076924,0)"><line stroke="currentColor" y2="6"/><text fill="currentColor" y="9" dy="0.71em">50</text></g><g class="tick" opacity="1" transform="translate(596.5384615384615,0)"><line stroke="currentColor" y2="6"/><text fill="currentColor" y="9" dy="0.71em">55</text></g><g class="tick" opacity="1" transform="translate(650.7692307692308,0)"><line stroke="currentColor" y2="6"/><text fill="currentColor" y="9" dy="0.71em">60</text></g><g class="tick" opacity="1" transform="translate(705,0)"><line stroke="currentColor" y2="6"/><text fill="currentColor" y="9" dy="0.71em">65</text></g><text x="705" dy="-5" text-anchor="end" style="font-family: Arial, sans-serif; font-size: 12px; fill: rgb(123, 123, 123); font-weight: bold;">Semana</text></g><g fill="none" font-size="10" font-family="sans-serif" text-anchor="end"><path class="domain" stroke="currentColor" d="M0,0V540"/><g class="tick" opacity="1" transform="translate(0,40)"><line stroke="currentColor" x2="705" style="stroke: rgb(204, 204, 204);"/><text fill="currentColor" x="-3" dy="0.32em">0</text></g><g class="tick" opacity="1" transform="translate(0,117)"><line stroke="currentColor" x2="705" style="stroke: rgb(204, 204, 204);"/><text fill="currentColor" x="-3" dy="0.32em">1</text></g><g class="tick" opacity="1" transform="translate(0,194)"><line stroke="currentColor" x2="705" style="stroke: rgb(204, 204, 204);"/><text fill="currentColor" x="-3" dy="0.32em">2</text></g><g class="tick" opacity="1" transform="translate(0,271)"><line stroke="currentColor" x2="705" style="stroke: rgb(204, 204, 204);"/><text fill="currentColor" x="-3" dy="0.32em">3</text></g><g class="tick" opacity="1" transform="translate(0,348)"><line stroke="currentColor" x2="705" style="stroke: rgb(204, 204, 204);"/><text fill="currentColor" x="-3" dy="0.32em">4</text></g><g class="tick" opacity="1" transform="translate(0,425)"><line stroke="currentColor" x2="705" style="stroke: rgb(204, 204, 204);"/><text fill="currentColor" x="-3" dy="0.32em">5</text></g><g class="tick" opacity="1" transform="translate(0,502)"><line stroke="currentColor" x2="705" style="stroke: rgb(204, 204, 204);"/><text fill="currentColor" x="-3" dy="0.32em">6</text></g><text x="4" text-anchor="start" dominant-baseline="hanging" style="font-family: Arial, sans-serif; font-size: 12px; fill: rgb(123, 123, 123); font-weight: bold;">veces_actividad</text></g></g><g id="visualization"><g id="0"><g id="circles"><circle id="" cx="31.99596509961536" cy="53.92884977569261" r="12.75" style="fill: rgb(244, 129, 189);"/><circle id="" cx="28.35235238545236" cy="26.671001802748275" r="12.75" style="fill: rgb(244, 129, 189);"/><circle id="" cx="53.779599056507934" cy="37.14365115552987" r="12.75" style="fill: rgb(244, 129, 189);"/><circle id="" cx="81.10285268919348" cy="40.25649726602926" r="12.75" style="fill: rgb(244, 129, 189);"/><circle id="" cx="261.7309184418282" cy="39.5" r="12.75" style="fill: rgb(244, 129, 189);"/><circle id="" cx="289.23069462523966" cy="39.5" r="12.75" style="fill: rgb(244, 129, 189);"/><circle id="" cx="316.73069462523966" cy="39.5" r="12.75" style="fill: rgb(244, 129, 189);"/><circle id="" cx="509.7692307692308" cy="39.5" r="12.75" style="fill: rgb(244, 129, 189);"/><circle id="" cx="588.2115384615385" cy="39.5" r="12.75" style="fill: rgb(244, 129, 189);"/><circle id="" cx="615.7115384615386" cy="39.5" r="12.75" style="fill: rgb(244, 129, 189);"/></g><g id="labels"><g id="" transform="translate(31.99596509961536,53.92884977569261)"><text x="0" y="0" text-anchor="middle" dominant-baseline="text-before-edge" transform="translate(0,0)"/></g><g id="" transform="translate(28.35235238545236,26.671001802748275)"><text x="0" y="0" text-anchor="middle" dominant-baseline="text-before-edge" transform="translate(0,0)"/></g><g id="" transform="translate(53.779599056507934,37.14365115552987)"><text x="0" y="0" text-anchor="middle" dominant-baseline="text-before-edge" transform="translate(0,0)"/></g><g id="" transform="translate(81.10285268919348,40.25649726602926)"><text x="0" y="0" text-anchor="middle" dominant-baseline="text-before-edge" transform="translate(0,0)"/></g><g id="" transform="translate(261.7309184418282,39.5)"><text x="0" y="0" text-anchor="middle" dominant-baseline="text-before-edge" transform="translate(0,0)"/></g><g id="" transform="translate(289.23069462523966,39.5)"><text x="0" y="0" text-anchor="middle" dominant-baseline="text-before-edge" transform="translate(0,0)"/></g><g id="" transform="translate(316.73069462523966,39.5)"><text x="0" y="0" text-anchor="middle" dominant-baseline="text-before-edge" transform="translate(0,0)"/></g><g id="" transform="translate(509.7692307692308,39.5)"><text x="0" y="0" text-anchor="middle" dominant-baseline="text-before-edge" transform="translate(0,0)"/></g><g id="" transform="translate(588.2115384615385,39.5)"><text x="0" y="0" text-anchor="middle" dominant-baseline="text-before-edge" transform="translate(0,0)"/></g><g id="" transform="translate(615.7115384615386,39.5)"><text x="0" y="0" text-anchor="middle" dominant-baseline="text-before-edge" transform="translate(0,0)"/></g></g></g><g id="1"><g id="circles"><circle id="" cx="65.07692307692308" cy="116.5" r="12.75" style="fill: rgb(243, 108, 178);"/><circle id="" cx="235.67003953477405" cy="116.50066245108862" r="12.75" style="fill: rgb(243, 108, 178);"/><circle id="" cx="263.1700394644315" cy="116.49869551483239" r="12.75" style="fill: rgb(243, 108, 178);"/><circle id="" cx="296.5412303895528" cy="119.88439974584057" r="12.75" style="fill: rgb(243, 108, 178);"/><circle id="" cx="320.9258814964346" cy="107.1722697107399" r="12.75" style="fill: rgb(243, 108, 178);"/><circle id="" cx="338.203231338742" cy="128.56779087586392" r="12.75" style="fill: rgb(243, 108, 178);"/><circle id="" cx="348.0932989093767" cy="102.90711171408466" r="12.75" style="fill: rgb(243, 108, 178);"/><circle id="" cx="365.3709997035381" cy="124.30171189136972" r="12.75" style="fill: rgb(243, 108, 178);"/><circle id="" cx="391.6402171352068" cy="116.16671247361529" r="12.75" style="fill: rgb(243, 108, 178);"/><circle id="" cx="423.0544497204567" cy="116.50065912555377" r="12.75" style="fill: rgb(243, 108, 178);"/><circle id="" cx="455.5613815382558" cy="116.49998649701118" r="12.75" style="fill: rgb(243, 108, 178);"/><circle id="" cx="523.1346153846154" cy="116.5" r="12.75" style="fill: rgb(243, 108, 178);"/><circle id="" cx="550.6346153846155" cy="116.5" r="12.75" style="fill: rgb(243, 108, 178);"/><circle id="" cx="615.326923076923" cy="116.5" r="12.75" style="fill: rgb(243, 108, 178);"/><circle id="" cx="642.8269230769231" cy="116.5" r="12.75" style="fill: rgb(243, 108, 178);"/><circle id="" cx="705" cy="116.5" r="12.75" style="fill: rgb(243, 108, 178);"/></g><g id="labels"><g id="" transform="translate(65.07692307692308,116.5)"><text x="0" y="0" text-anchor="middle" dominant-baseline="text-before-edge" transform="translate(0,0)"/></g><g id="" transform="translate(235.67003953477405,116.50066245108862)"><text x="0" y="0" text-anchor="middle" dominant-baseline="text-before-edge" transform="translate(0,0)"/></g><g id="" transform="translate(263.1700394644315,116.49869551483239)"><text x="0" y="0" text-anchor="middle" dominant-baseline="text-before-edge" transform="translate(0,0)"/></g><g id="" transform="translate(296.5412303895528,119.88439974584057)"><text x="0" y="0" text-anchor="middle" dominant-baseline="text-before-edge" transform="translate(0,0)"/></g><g id="" transform="translate(320.9258814964346,107.1722697107399)"><text x="0" y="0" text-anchor="middle" dominant-baseline="text-before-edge" transform="translate(0,0)"/></g><g id="" transform="translate(338.203231338742,128.56779087586392)"><text x="0" y="0" text-anchor="middle" dominant-baseline="text-before-edge" transform="translate(0,0)"/></g><g id="" transform="translate(348.0932989093767,102.90711171408466)"><text x="0" y="0" text-anchor="middle" dominant-baseline="text-before-edge" transform="translate(0,0)"/></g><g id="" transform="translate(365.3709997035381,124.30171189136972)"><text x="0" y="0" text-anchor="middle" dominant-baseline="text-before-edge" transform="translate(0,0)"/></g><g id="" transform="translate(391.6402171352068,116.16671247361529)"><text x="0" y="0" text-anchor="middle" dominant-baseline="text-before-edge" transform="translate(0,0)"/></g><g id="" transform="translate(423.0544497204567,116.50065912555377)"><text x="0" y="0" text-anchor="middle" dominant-baseline="text-before-edge" transform="translate(0,0)"/></g><g id="" transform="translate(455.5613815382558,116.49998649701118)"><text x="0" y="0" text-anchor="middle" dominant-baseline="text-before-edge" transform="translate(0,0)"/></g><g id="" transform="translate(523.1346153846154,116.5)"><text x="0" y="0" text-anchor="middle" dominant-baseline="text-before-edge" transform="translate(0,0)"/></g><g id="" transform="translate(550.6346153846155,116.5)"><text x="0" y="0" text-anchor="middle" dominant-baseline="text-before-edge" transform="translate(0,0)"/></g><g id="" transform="translate(615.326923076923,116.5)"><text x="0" y="0" text-anchor="middle" dominant-baseline="text-before-edge" transform="translate(0,0)"/></g><g id="" transform="translate(642.8269230769231,116.5)"><text x="0" y="0" text-anchor="middle" dominant-baseline="text-before-edge" transform="translate(0,0)"/></g><g id="" transform="translate(705,116.5)"><text x="0" y="0" text-anchor="middle" dominant-baseline="text-before-edge" transform="translate(0,0)"/></g></g></g><g id="2"><g id="circles"><circle id="" cx="2.51923076923077" cy="193.5" r="12.75" style="fill: rgb(242, 88, 167);"/><circle id="" cx="30.01923076923077" cy="193.5" r="12.75" style="fill: rgb(242, 88, 167);"/><circle id="" cx="108.46153846153847" cy="193.5" r="12.75" style="fill: rgb(242, 88, 167);"/><circle id="" cx="167.46429341446674" cy="196.8472153882943" r="12.75" style="fill: rgb(242, 88, 167);"/><circle id="" cx="190.64653447848806" cy="182.0549090490437" r="12.75" style="fill: rgb(242, 88, 167);"/><circle id="" cx="204.89366663152077" cy="205.57680985508415" r="12.75" style="fill: rgb(242, 88, 167);"/><circle id="" cx="218.14064907620633" cy="181.476844766525" r="12.75" style="fill: rgb(242, 88, 167);"/><circle id="" cx="232.3877192311031" cy="204.99858135715573" r="12.75" style="fill: rgb(242, 88, 167);"/><circle id="" cx="255.46713716821475" cy="190.04563958389704" r="12.75" style="fill: rgb(242, 88, 167);"/><circle id="" cx="359.47136833104156" cy="188.88185552621147" r="12.75" style="fill: rgb(242, 88, 167);"/><circle id="" cx="382.49066532310445" cy="203.92709498085836" r="12.75" style="fill: rgb(242, 88, 167);"/><circle id="" cx="399.0309578438082" cy="181.9573295463807" r="12.75" style="fill: rgb(242, 88, 167);"/><circle id="" cx="420.3978371963102" cy="199.26936197263254" r="12.75" style="fill: rgb(242, 88, 167);"/><circle id="" cx="458.9098240807175" cy="186.80341183351968" r="12.75" style="fill: rgb(242, 88, 167);"/><circle id="" cx="477.27648716242413" cy="207.27102415219986" r="12.75" style="fill: rgb(242, 88, 167);"/><circle id="" cx="494.9920073143752" cy="186.23747538048764" r="12.75" style="fill: rgb(242, 88, 167);"/><circle id="" cx="521.4732863097627" cy="193.65312523525017" r="12.75" style="fill: rgb(242, 88, 167);"/><circle id="" cx="555.7287837916891" cy="193.4956929826179" r="12.75" style="fill: rgb(242, 88, 167);"/><circle id="" cx="583.2287826467675" cy="193.50362838984157" r="12.75" style="fill: rgb(242, 88, 167);"/><circle id="" cx="629.0769230769231" cy="193.5" r="12.75" style="fill: rgb(242, 88, 167);"/><circle id="" cx="672.4615384615385" cy="193.5" r="12.75" style="fill: rgb(242, 88, 167);"/></g><g id="labels"><g id="" transform="translate(2.51923076923077,193.5)"><text x="0" y="0" text-anchor="middle" dominant-baseline="text-before-edge" transform="translate(0,0)"/></g><g id="" transform="translate(30.01923076923077,193.5)"><text x="0" y="0" text-anchor="middle" dominant-baseline="text-before-edge" transform="translate(0,0)"/></g><g id="" transform="translate(108.46153846153847,193.5)"><text x="0" y="0" text-anchor="middle" dominant-baseline="text-before-edge" transform="translate(0,0)"/></g><g id="" transform="translate(167.46429341446674,196.8472153882943)"><text x="0" y="0" text-anchor="middle" dominant-baseline="text-before-edge" transform="translate(0,0)"/></g><g id="" transform="translate(190.64653447848806,182.0549090490437)"><text x="0" y="0" text-anchor="middle" dominant-baseline="text-before-edge" transform="translate(0,0)"/></g><g id="" transform="translate(204.89366663152077,205.57680985508415)"><text x="0" y="0" text-anchor="middle" dominant-baseline="text-before-edge" transform="translate(0,0)"/></g><g id="" transform="translate(218.14064907620633,181.476844766525)"><text x="0" y="0" text-anchor="middle" dominant-baseline="text-before-edge" transform="translate(0,0)"/></g><g id="" transform="translate(232.3877192311031,204.99858135715573)"><text x="0" y="0" text-anchor="middle" dominant-baseline="text-before-edge" transform="translate(0,0)"/></g><g id="" transform="translate(255.46713716821475,190.04563958389704)"><text x="0" y="0" text-anchor="middle" dominant-baseline="text-before-edge" transform="translate(0,0)"/></g><g id="" transform="translate(359.47136833104156,188.88185552621147)"><text x="0" y="0" text-anchor="middle" dominant-baseline="text-before-edge" transform="translate(0,0)"/></g><g id="" transform="translate(382.49066532310445,203.92709498085836)"><text x="0" y="0" text-anchor="middle" dominant-baseline="text-before-edge" transform="translate(0,0)"/></g><g id="" transform="translate(399.0309578438082,181.9573295463807)"><text x="0" y="0" text-anchor="middle" dominant-baseline="text-before-edge" transform="translate(0,0)"/></g><g id="" transform="translate(420.3978371963102,199.26936197263254)"><text x="0" y="0" text-anchor="middle" dominant-baseline="text-before-edge" transform="translate(0,0)"/></g><g id="" transform="translate(458.9098240807175,186.80341183351968)"><text x="0" y="0" text-anchor="middle" dominant-baseline="text-before-edge" transform="translate(0,0)"/></g><g id="" transform="translate(477.27648716242413,207.27102415219986)"><text x="0" y="0" text-anchor="middle" dominant-baseline="text-before-edge" transform="translate(0,0)"/></g><g id="" transform="translate(494.9920073143752,186.23747538048764)"><text x="0" y="0" text-anchor="middle" dominant-baseline="text-before-edge" transform="translate(0,0)"/></g><g id="" transform="translate(521.4732863097627,193.65312523525017)"><text x="0" y="0" text-anchor="middle" dominant-baseline="text-before-edge" transform="translate(0,0)"/></g><g id="" transform="translate(555.7287837916891,193.4956929826179)"><text x="0" y="0" text-anchor="middle" dominant-baseline="text-before-edge" transform="translate(0,0)"/></g><g id="" transform="translate(583.2287826467675,193.50362838984157)"><text x="0" y="0" text-anchor="middle" dominant-baseline="text-before-edge" transform="translate(0,0)"/></g><g id="" transform="translate(629.0769230769231,193.5)"><text x="0" y="0" text-anchor="middle" dominant-baseline="text-before-edge" transform="translate(0,0)"/></g><g id="" transform="translate(672.4615384615385,193.5)"><text x="0" y="0" text-anchor="middle" dominant-baseline="text-before-edge" transform="translate(0,0)"/></g></g></g><g id="3"><g id="circles"><circle id="" cx="43.241396181963786" cy="270.50255533716194" r="12.75" style="fill: rgb(242, 67, 156);"/><circle id="" cx="75.75092531795647" cy="266.12843184337186" r="12.75" style="fill: rgb(242, 67, 156);"/><circle id="" cx="99.17849230514226" cy="280.52947539098875" r="12.75" style="fill: rgb(242, 67, 156);"/><circle id="" cx="117.87941000924991" cy="260.3672505085507" r="12.75" style="fill: rgb(242, 67, 156);"/><circle id="" cx="141.1805454164571" cy="274.9722869199264" r="12.75" style="fill: rgb(242, 67, 156);"/><circle id="" cx="184.3846153846154" cy="270.5" r="12.75" style="fill: rgb(242, 67, 156);"/><circle id="" cx="292.84615384615387" cy="270.5" r="12.75" style="fill: rgb(242, 67, 156);"/><circle id="" cx="425.5192307692308" cy="270.5" r="12.75" style="fill: rgb(242, 67, 156);"/><circle id="" cx="453.0192307692308" cy="270.5" r="12.75" style="fill: rgb(242, 67, 156);"/><circle id="" cx="498.92307692307696" cy="270.5" r="12.75" style="fill: rgb(242, 67, 156);"/><circle id="" cx="585.6923076923077" cy="270.5" r="12.75" style="fill: rgb(242, 67, 156);"/></g><g id="labels"><g id="" transform="translate(43.241396181963786,270.50255533716194)"><text x="0" y="0" text-anchor="middle" dominant-baseline="text-before-edge" transform="translate(0,0)"/></g><g id="" transform="translate(75.75092531795647,266.12843184337186)"><text x="0" y="0" text-anchor="middle" dominant-baseline="text-before-edge" transform="translate(0,0)"/></g><g id="" transform="translate(99.17849230514226,280.52947539098875)"><text x="0" y="0" text-anchor="middle" dominant-baseline="text-before-edge" transform="translate(0,0)"/></g><g id="" transform="translate(117.87941000924991,260.3672505085507)"><text x="0" y="0" text-anchor="middle" dominant-baseline="text-before-edge" transform="translate(0,0)"/></g><g id="" transform="translate(141.1805454164571,274.9722869199264)"><text x="0" y="0" text-anchor="middle" dominant-baseline="text-before-edge" transform="translate(0,0)"/></g><g id="" transform="translate(184.3846153846154,270.5)"><text x="0" y="0" text-anchor="middle" dominant-baseline="text-before-edge" transform="translate(0,0)"/></g><g id="" transform="translate(292.84615384615387,270.5)"><text x="0" y="0" text-anchor="middle" dominant-baseline="text-before-edge" transform="translate(0,0)"/></g><g id="" transform="translate(425.5192307692308,270.5)"><text x="0" y="0" text-anchor="middle" dominant-baseline="text-before-edge" transform="translate(0,0)"/></g><g id="" transform="translate(453.0192307692308,270.5)"><text x="0" y="0" text-anchor="middle" dominant-baseline="text-before-edge" transform="translate(0,0)"/></g><g id="" transform="translate(498.92307692307696,270.5)"><text x="0" y="0" text-anchor="middle" dominant-baseline="text-before-edge" transform="translate(0,0)"/></g><g id="" transform="translate(585.6923076923077,270.5)"><text x="0" y="0" text-anchor="middle" dominant-baseline="text-before-edge" transform="translate(0,0)"/></g></g></g><g id="4"><g id="circles"><circle id="" cx="162.6923076923077" cy="347.5" r="12.75" style="fill: rgb(241, 47, 145);"/><circle id="" cx="652.1931951054481" cy="347.5" r="12.75" style="fill: rgb(241, 47, 145);"/><circle id="" cx="679.6918639857377" cy="347.5" r="12.75" style="fill: rgb(241, 47, 145);"/><circle id="" cx="707.1918639857377" cy="347.5" r="12.75" style="fill: rgb(241, 47, 145);"/></g><g id="labels"><g id="" transform="translate(162.6923076923077,347.5)"><text x="0" y="0" text-anchor="middle" dominant-baseline="text-before-edge" transform="translate(0,0)"/></g><g id="" transform="translate(652.1931951054481,347.5)"><text x="0" y="0" text-anchor="middle" dominant-baseline="text-before-edge" transform="translate(0,0)"/></g><g id="" transform="translate(679.6918639857377,347.5)"><text x="0" y="0" text-anchor="middle" dominant-baseline="text-before-edge" transform="translate(0,0)"/></g><g id="" transform="translate(707.1918639857377,347.5)"><text x="0" y="0" text-anchor="middle" dominant-baseline="text-before-edge" transform="translate(0,0)"/></g></g></g><g id="5"><g id="circles"><circle id="" cx="132.67307692307693" cy="424.5" r="12.75" style="fill: rgb(241, 26, 134);"/><circle id="" cx="160.17307692307693" cy="424.5" r="12.75" style="fill: rgb(241, 26, 134);"/><circle id="" cx="650.7692307692308" cy="424.5" r="12.75" style="fill: rgb(241, 26, 134);"/></g><g id="labels"><g id="" transform="translate(132.67307692307693,424.5)"><text x="0" y="0" text-anchor="middle" dominant-baseline="text-before-edge" transform="translate(0,0)"/></g><g id="" transform="translate(160.17307692307693,424.5)"><text x="0" y="0" text-anchor="middle" dominant-baseline="text-before-edge" transform="translate(0,0)"/></g><g id="" transform="translate(650.7692307692308,424.5)"><text x="0" y="0" text-anchor="middle" dominant-baseline="text-before-edge" transform="translate(0,0)"/></g></g></g><g id="6"><g id="circles"><circle id="" cx="553.1538461538462" cy="501.5" r="12.75" style="fill: rgb(240, 6, 123);"/></g><g id="labels"><g id="" transform="translate(553.1538461538462,501.5)"><text x="0" y="0" text-anchor="middle" dominant-baseline="text-before-edge" transform="translate(0,0)"/></g></g></g></g></g></svg>